<svg width="504" height="512" viewBox="0 0 504 512" fill="none" xmlns="http://www.w3.org/2000/svg">
<path d="M216.795 202.447L180.452 252.941V353.133L298.071 512H349.727L216.795 202.447Z" fill="#32D29B"/>
<path d="M180.452 403.635V512H260.682L180.452 403.635Z" fill="#32D29B"/>
<path d="M221.048 137.405L347.065 240.187L473.08 137.405L397.006 52.0933L397 52.0953H297.13L297.124 52.0923L221.048 137.405Z" fill="#32D29B"/>
<path d="M493.412 115.053L503.182 0L425.015 38.3513L493.412 115.053Z" fill="#32D29B"/>
<path d="M269.115 38.3513L190.947 0L200.718 115.054L269.115 38.3513Z" fill="#32D29B"/>
<path d="M347.065 278.965L247.476 197.739L359.517 458.643L484.983 166.476L347.065 278.965Z" fill="#32D29B"/>
<path d="M150.402 205.548L123.262 191.979L33.6451 326.405L118.373 512H150.402V205.548Z" fill="#32D29B"/>
<path d="M96.1759 178.436L0.818076 130.757V254.496L18.9655 294.25L96.1759 178.436Z" fill="#32D29B"/>
</svg>
