<svg width="398" height="390" viewBox="0 0 398 390" fill="none" xmlns="http://www.w3.org/2000/svg">
<g clip-path="url(#clip0)">
<path d="M340.547 208.193H309.768C312.905 216.61 314.619 225.694 314.619 235.161V349.153C314.619 353.1 313.918 356.889 312.642 360.413H363.528C382.536 360.413 398 345.259 398 326.633V264.491C398.001 233.449 372.227 208.193 340.547 208.193Z" fill="#32D29B"/>
<path d="M83.3819 235.162C83.3819 225.694 85.096 216.611 88.2334 208.194H57.4536C25.7737 208.194 0 233.45 0 264.493V326.635C0 345.26 15.4637 360.414 34.4722 360.414H85.3587C84.0831 356.889 83.3819 353.101 83.3819 349.154V235.162Z" fill="#32D29B"/>
<path d="M234.184 178.863H163.817C132.137 178.863 106.363 204.119 106.363 235.162V349.154C106.363 355.371 111.508 360.413 117.854 360.413H280.147C286.493 360.413 291.637 355.372 291.637 349.154V235.162C291.637 204.119 265.864 178.863 234.184 178.863Z" fill="#32D29B"/>
<path d="M199 29.5852C160.901 29.5852 129.905 59.958 129.905 97.2922C129.905 122.616 144.169 144.732 165.233 156.344C175.225 161.851 186.743 164.999 199 164.999C211.258 164.999 222.776 161.851 232.767 156.344C253.833 144.732 268.095 122.615 268.095 97.2922C268.095 59.9588 237.1 29.5852 199 29.5852Z" fill="#32D29B"/>
<path d="M77.6708 92.693C49.1773 92.693 25.9968 115.407 25.9968 143.328C25.9968 171.249 49.1773 193.964 77.6708 193.964C84.8986 193.964 91.7812 192.497 98.0334 189.86C108.843 185.299 117.756 177.226 123.271 167.115C127.143 160.018 129.345 151.921 129.345 143.328C129.345 115.408 106.164 92.693 77.6708 92.693Z" fill="#32D29B"/>
<path d="M320.33 92.693C291.836 92.693 268.656 115.407 268.656 143.328C268.656 151.922 270.858 160.018 274.729 167.115C280.245 177.227 289.158 185.3 299.967 189.86C306.22 192.497 313.102 193.964 320.33 193.964C348.824 193.964 372.004 171.249 372.004 143.328C372.004 115.407 348.824 92.693 320.33 92.693Z" fill="#32D29B"/>
</g>
<defs>
<clipPath id="clip0">
<rect width="398" height="390" fill="white"/>
</clipPath>
</defs>
</svg>
