<svg width="400" height="400" viewBox="0 0 400 400" fill="none" xmlns="http://www.w3.org/2000/svg">
<g clip-path="url(#clip0)">
<path d="M58.5938 134.541L82.0312 157.979L105.469 134.541L128.906 157.979L152.344 134.541L170.927 153.125H224.262C240.787 181.722 271.457 200 305.47 200C357.595 200 400.001 157.944 400.001 106.25C400.001 54.5563 357.594 12.5 305.469 12.5C271.478 12.5 240.798 30.7586 224.261 59.375H30.3023L0 89.6773V122.823L35.1562 157.98L58.5938 134.541ZM23.4375 99.3852L40.0102 82.8125H238.738C239.159 82.3156 256.054 35.9375 305.469 35.9375C344.67 35.9375 376.562 67.4797 376.562 106.25C376.562 145.02 344.67 176.562 305.469 176.562C254.875 176.562 239.716 130.841 238.738 129.688H180.635L152.344 101.396L128.906 124.834L105.469 101.396L82.0312 124.834L58.5938 101.396L35.1562 124.834L23.4375 113.115V99.3852Z" fill="#32D29B"/>
<path d="M46.875 200H70.3125V270.312H46.875V200Z" fill="#32D29B"/>
<path d="M187.5 200H210.938V270.312H187.5V200Z" fill="#32D29B"/>
<path d="M234.375 200H257.812V270.312H234.375V200Z" fill="#32D29B"/>
<path d="M140.625 293.75H164.062V364.062H140.625V293.75Z" fill="#32D29B"/>
<path d="M164.062 200H93.75V270.312H164.062V200ZM140.625 246.875H117.188V223.438H140.625V246.875Z" fill="#32D29B"/>
<path d="M117.188 293.75H46.875V364.062H117.188V293.75ZM93.75 340.625H70.3125V317.188H93.75V340.625Z" fill="#32D29B"/>
<path d="M187.5 364.062H257.812V293.75H187.5V364.062ZM210.938 317.188H234.375V340.625H210.938V317.188Z" fill="#32D29B"/>
<path d="M317.969 141.406C337.354 141.406 353.125 125.635 353.125 106.25C353.125 86.8648 337.354 71.0938 317.969 71.0938C298.545 71.0938 282.031 86.7938 282.031 106.25C282.031 125.677 298.52 141.406 317.969 141.406ZM317.969 94.5312C324.43 94.5312 329.688 99.7883 329.688 106.25C329.688 112.712 324.43 117.969 317.969 117.969C311.31 117.969 305.469 112.493 305.469 106.25C305.469 100.007 311.31 94.5312 317.969 94.5312Z" fill="#32D29B"/>
<path d="M23.4375 200H46.875V176.562H0V223.438H23.4375V200Z" fill="#32D29B"/>
<path d="M46.875 364.062H23.4375V340.625H0V387.5H46.875V364.062Z" fill="#32D29B"/>
<path d="M304.688 387.5V340.625H281.25V364.062H257.812V387.5H304.688Z" fill="#32D29B"/>
</g>
<defs>
<clipPath id="clip0">
<rect width="400" height="400" fill="white"/>
</clipPath>
</defs>
</svg>
