<svg width="350" height="350" viewBox="0 0 350 350" fill="none" xmlns="http://www.w3.org/2000/svg">
<path d="M318.555 267.969H277.539C271.876 267.969 267.285 263.378 267.285 257.715V10.2539C267.285 4.59102 271.876 0 277.539 0H318.555C324.218 0 328.809 4.59102 328.809 10.2539V257.715C328.809 263.378 324.218 267.969 318.555 267.969Z" fill="#32D29B"/>
<path d="M236.523 267.969H195.508C189.845 267.969 185.254 263.378 185.254 257.715V52.6367C185.254 46.9738 189.845 42.3828 195.508 42.3828H236.523C242.186 42.3828 246.777 46.9738 246.777 52.6367V257.715C246.777 263.378 242.186 267.969 236.523 267.969Z" fill="#32D29B"/>
<path d="M154.492 267.969H113.477C107.814 267.969 103.223 263.378 103.223 257.715V93.6523C103.223 87.9895 107.814 83.3984 113.477 83.3984H154.492C160.155 83.3984 164.746 87.9895 164.746 93.6523V257.715C164.746 263.378 160.155 267.969 154.492 267.969Z" fill="#32D29B"/>
<path d="M72.4609 267.969H31.4453C25.7824 267.969 21.1914 263.378 21.1914 257.715V134.668C21.1914 129.005 25.7824 124.414 31.4453 124.414H72.4609C78.1238 124.414 82.7148 129.005 82.7148 134.668V257.715C82.7148 263.378 78.1238 267.969 72.4609 267.969Z" fill="#32D29B"/>
<path d="M164.746 319.238C164.746 322.745 165.102 326.177 165.778 329.492H10.2539C4.59375 329.492 0 324.898 0 319.238C0 313.578 4.59375 308.984 10.2539 308.984H165.778C165.102 312.3 164.746 315.731 164.746 319.238Z" fill="#32D29B"/>
<path d="M350 319.238C350 324.898 345.406 329.492 339.746 329.492H266.253C266.93 326.177 267.285 322.745 267.285 319.238C267.285 315.731 266.93 312.3 266.253 308.984H339.746C345.406 308.984 350 313.578 350 319.238Z" fill="#32D29B"/>
<path d="M216.016 350C199.054 350 185.254 336.2 185.254 319.238C185.254 302.276 199.054 288.477 216.016 288.477C232.978 288.477 246.777 302.276 246.777 319.238C246.777 336.2 232.978 350 216.016 350Z" fill="#32D29B"/>
</svg>
