<svg width="350" height="350" viewBox="0 0 350 350" fill="none" xmlns="http://www.w3.org/2000/svg">
<path d="M175 0C78.3502 0 0 78.3502 0 175C0 271.65 78.3502 350 175 350C271.65 350 350 271.65 350 175C349.891 78.3955 271.605 0.109299 175 0ZM175 338.333C84.7935 338.333 11.6667 265.207 11.6667 175C11.6667 84.7935 84.7935 11.6667 175 11.6667C265.207 11.6667 338.333 84.7935 338.333 175C338.23 265.164 265.164 338.23 175 338.333Z" fill="#32D29B"/>
<path d="M175 23.3334C91.2369 23.3334 23.3334 91.2369 23.3334 175C23.3334 258.763 91.2369 326.667 175 326.667C258.763 326.667 326.667 258.763 326.667 175C326.57 91.2768 258.723 23.4298 175 23.3334ZM175 315C97.6802 315 35 252.32 35 175C35 97.6802 97.6802 35 175 35C252.32 35 315 97.6802 315 175C314.91 252.283 252.283 314.91 175 315Z" fill="#32D29B"/>
<path d="M175 122.5C194.33 122.5 210 106.83 210 87.5C210 68.17 194.33 52.5 175 52.5C155.67 52.5 140 68.17 140 87.5C140.019 106.822 155.678 122.481 175 122.5ZM175 64.1667C187.887 64.1667 198.333 74.6134 198.333 87.5C198.333 100.387 187.887 110.833 175 110.833C162.113 110.833 151.667 100.387 151.667 87.5C151.667 74.6134 162.113 64.1667 175 64.1667Z" fill="#32D29B"/>
<path d="M256.241 128.38H256.148L194.898 133.881C192.809 134.071 190.719 134.167 188.627 134.167H161.373C159.285 134.167 157.199 134.073 155.114 133.887L93.7592 128.38C84.1232 127.623 75.698 134.821 74.9409 144.457C74.1838 154.093 81.3816 162.518 91.0175 163.275L140.525 167.767C143.529 168.038 145.831 170.555 145.833 173.571V186.988C145.835 189.904 145.289 192.795 144.223 195.51L116.153 266.998C112.241 275.838 116.235 286.176 125.075 290.089C133.916 294.002 144.254 290.007 148.167 281.167L174.918 215.758L201.921 281.342C205.948 289.96 216.121 293.783 224.827 289.95C233.533 286.117 237.583 276.032 233.946 267.243L205.777 195.493C204.714 192.781 204.167 189.894 204.167 186.982V173.565C204.17 170.549 206.471 168.032 209.475 167.761L258.901 163.275C268.538 162.54 275.756 154.132 275.021 144.495C274.287 134.857 265.878 127.64 256.241 128.374V128.38ZM257.927 151.667L208.419 156.158C199.39 156.936 192.467 164.508 192.5 173.571V186.988C192.498 191.366 193.319 195.705 194.921 199.78L223.189 271.758C224.563 274.672 223.315 278.148 220.401 279.522C217.487 280.896 214.011 279.647 212.637 276.733L185.693 211.324C183.906 206.995 179.684 204.17 175 204.17C170.316 204.17 166.095 206.995 164.308 211.324L137.439 276.558C136.604 278.544 134.742 279.907 132.598 280.105C130.453 280.302 128.374 279.302 127.19 277.503C126.006 275.704 125.909 273.398 126.939 271.507L155.108 199.757C156.699 195.686 157.511 191.352 157.5 186.982V173.565C157.54 164.498 150.614 156.918 141.581 156.141L91.9917 151.667C88.7701 151.44 86.3425 148.644 86.5696 145.422C86.7968 142.2 89.5926 139.773 92.8142 140L154.064 145.501C156.491 145.719 158.923 145.828 161.362 145.828H188.615C191.053 145.828 193.486 145.719 195.913 145.501L257.133 140C258.675 139.878 260.202 140.377 261.374 141.386C262.546 142.395 263.266 143.83 263.375 145.373C263.502 146.933 262.996 148.479 261.971 149.663C260.947 150.846 259.489 151.569 257.927 151.667Z" fill="#32D29B"/>
</svg>
