<svg width="511" height="511" viewBox="0 0 511 511" fill="none" xmlns="http://www.w3.org/2000/svg">
<path d="M479.5 132H31.5C14.131 132 0 146.131 0 163.5V259.5C0 276.869 14.131 291 31.5 291H311.5C315.642 291 319 287.642 319 283.5C319 279.358 315.642 276 311.5 276H31.5C22.402 276 15 268.598 15 259.5V163.5C15 154.402 22.402 147 31.5 147H479.5C488.598 147 496 154.402 496 163.5V235.5C496 239.642 499.358 243 503.5 243C507.642 243 511 239.642 511 235.5V163.5C511 146.131 496.869 132 479.5 132Z" fill="#32D29B"/>
<path d="M479 253.234V243.5C479 208.486 450.514 180 415.5 180C380.486 180 352 208.486 352 243.5V253.234C342.71 256.372 336 265.164 336 275.5V355.5C336 368.458 346.542 379 359.5 379H471.5C484.458 379 495 368.458 495 355.5V275.5C495 265.164 488.29 256.372 479 253.234ZM415.5 195C442.243 195 464 216.757 464 243.5V252H367V243.5C367 216.757 388.757 195 415.5 195ZM480 355.5C480 360.187 476.187 364 471.5 364H359.5C354.813 364 351 360.187 351 355.5V275.5C351 270.813 354.813 267 359.5 267H471.5C476.187 267 480 270.813 480 275.5V355.5Z" fill="#32D29B"/>
<path d="M121.708 191.75C119.637 188.162 115.05 186.934 111.463 189.005L94.9999 198.51V179.5C94.9999 175.358 91.6419 172 87.4999 172C83.3579 172 79.9999 175.358 79.9999 179.5V198.51L63.5369 189.005C59.9499 186.933 55.3629 188.163 53.2919 191.75C51.2209 195.337 52.4499 199.924 56.0369 201.995L72.4999 211.5L56.0369 221.005C52.4499 223.076 51.2209 227.663 53.2919 231.25C54.6809 233.656 57.2019 235.001 59.7939 235.001C61.0659 235.001 62.3559 234.677 63.5369 233.995L79.9999 224.49V243.5C79.9999 247.642 83.3579 251 87.4999 251C91.6419 251 94.9999 247.642 94.9999 243.5V224.49L111.463 233.995C112.644 234.677 113.934 235.001 115.206 235.001C117.798 235.001 120.319 233.656 121.708 231.25C123.779 227.663 122.55 223.076 118.963 221.005L102.5 211.5L118.963 201.995C122.55 199.924 123.779 195.337 121.708 191.75Z" fill="#32D29B"/>
<path d="M217.708 191.75C215.637 188.162 211.05 186.934 207.463 189.005L191 198.51V179.5C191 175.358 187.642 172 183.5 172C179.358 172 176 175.358 176 179.5V198.51L159.537 189.005C155.95 186.933 151.363 188.163 149.292 191.75C147.221 195.337 148.45 199.924 152.037 201.995L168.5 211.5L152.037 221.005C148.45 223.076 147.221 227.663 149.292 231.25C150.681 233.656 153.202 235.001 155.794 235.001C157.066 235.001 158.356 234.677 159.537 233.995L176 224.49V243.5C176 247.642 179.358 251 183.5 251C187.642 251 191 247.642 191 243.5V224.49L207.463 233.995C208.644 234.677 209.934 235.001 211.206 235.001C213.798 235.001 216.319 233.656 217.708 231.25C219.779 227.663 218.55 223.076 214.963 221.005L198.5 211.5L214.963 201.995C218.55 199.924 219.779 195.337 217.708 191.75Z" fill="#32D29B"/>
<path d="M313.708 191.75C311.637 188.162 307.05 186.934 303.463 189.005L287 198.51V179.5C287 175.358 283.642 172 279.5 172C275.358 172 272 175.358 272 179.5V198.51L255.537 189.005C251.95 186.933 247.363 188.163 245.292 191.75C243.221 195.337 244.45 199.924 248.037 201.995L264.5 211.5L248.037 221.005C244.45 223.076 243.221 227.663 245.292 231.25C246.681 233.656 249.202 235.001 251.794 235.001C253.066 235.001 254.356 234.677 255.537 233.995L272 224.49V243.5C272 247.642 275.358 251 279.5 251C283.642 251 287 247.642 287 243.5V224.49L303.463 233.995C304.644 234.677 305.934 235.001 307.206 235.001C309.798 235.001 312.319 233.656 313.708 231.25C315.779 227.663 314.55 223.076 310.963 221.005L294.5 211.5L310.963 201.995C314.55 199.924 315.779 195.337 313.708 191.75Z" fill="#32D29B"/>
<path d="M415.5 284C402.542 284 392 294.542 392 307.5C392 317.836 398.71 326.628 408 329.766V339.5C408 343.642 411.358 347 415.5 347C419.642 347 423 343.642 423 339.5V329.766C432.29 326.628 439 317.836 439 307.5C439 294.542 428.458 284 415.5 284ZM415.5 316C410.813 316 407 312.187 407 307.5C407 302.813 410.813 299 415.5 299C420.187 299 424 302.813 424 307.5C424 312.187 420.187 316 415.5 316Z" fill="#32D29B"/>
</svg>
