<svg width="350" height="350" viewBox="0 0 350 350" fill="none" xmlns="http://www.w3.org/2000/svg">
<g clip-path="url(#clip0)">
<path d="M175 214.516C159.437 214.516 146.774 227.179 146.774 242.742C146.774 258.305 159.437 270.968 175 270.968C190.563 270.968 203.226 258.305 203.226 242.742C203.226 227.179 190.563 214.516 175 214.516ZM175 259.677C165.664 259.677 158.064 252.078 158.064 242.742C158.064 233.406 165.664 225.806 175 225.806C184.336 225.806 191.935 233.406 191.935 242.742C191.935 252.078 184.336 259.677 175 259.677Z" fill="#32D29B"/>
<path d="M169.355 22.5806H214.516V33.871H169.355V22.5806Z" fill="#32D29B"/>
<path d="M169.355 45.1613H214.516V56.4516H169.355V45.1613Z" fill="#32D29B"/>
<path d="M135.484 67.7419H214.516V79.0323H135.484V67.7419Z" fill="#32D29B"/>
<path d="M135.484 90.3226H214.516V101.613H135.484V90.3226Z" fill="#32D29B"/>
<path d="M135.484 112.903H214.516V124.194H135.484V112.903Z" fill="#32D29B"/>
<path d="M350 180.645V135.484H270.968V180.645H304.839V237.097H237.097V227.38L223.237 222.758L229.77 209.695L208.047 187.972L194.979 194.51L190.362 180.645H180.645V146.774H237.097V79.0323H304.839V110.566L291.895 97.6216L283.912 105.604L310.484 132.176L337.056 105.604L329.073 97.6216L316.129 110.566V67.7419H237.097V0H150.082L112.903 37.1787V67.7419H33.871V110.566L20.9268 97.6216L12.9442 105.604L39.5161 132.176L66.0881 105.604L58.1055 97.6216L45.1613 110.566V79.0323H112.903V146.774H169.355V180.645H159.638L155.021 194.51L141.953 187.972L120.23 209.695L126.763 222.758L112.903 227.38V237.097H45.1613V180.645H79.0323V135.484H0V180.645H33.871V271.77C24.1546 274.292 16.9355 283.06 16.9355 293.548C16.9355 306.002 27.0626 316.129 39.5161 316.129C51.9697 316.129 62.0968 306.002 62.0968 293.548C62.0968 283.06 54.8777 274.292 45.1613 271.77V248.387H79.0323V317.168C72.4775 319.506 67.7419 325.716 67.7419 333.065C67.7419 342.401 75.3414 350 84.6774 350C94.0134 350 101.613 342.401 101.613 333.065C101.613 325.716 96.8774 319.506 90.3226 317.168V248.387H112.903V258.103L126.763 262.726L120.23 275.789L141.953 297.512L155.021 290.974L159.638 304.839H190.356L194.973 290.974L208.041 297.512L229.765 275.789L223.232 262.726L237.097 258.103V248.387H259.677V317.168C253.123 319.506 248.387 325.716 248.387 333.065C248.387 342.401 255.987 350 265.323 350C274.659 350 282.258 342.401 282.258 333.065C282.258 325.716 277.523 319.506 270.968 317.168V248.387H304.839V271.77C295.122 274.292 287.903 283.06 287.903 293.548C287.903 306.002 298.03 316.129 310.484 316.129C322.937 316.129 333.065 306.002 333.065 293.548C333.065 283.06 325.845 274.292 316.129 271.77V180.645H350ZM146.774 19.2729V33.871H132.176L146.774 19.2729ZM124.194 45.1613H158.065V11.2903H225.806V135.484H124.194V45.1613ZM11.2903 146.774H67.7419V169.355H11.2903V146.774ZM50.8064 293.548C50.8064 299.775 45.7429 304.839 39.5161 304.839C33.2894 304.839 28.2258 299.775 28.2258 293.548C28.2258 287.322 33.2894 282.258 39.5161 282.258C45.7429 282.258 50.8064 287.322 50.8064 293.548ZM84.6774 338.71C81.5627 338.71 79.0323 336.174 79.0323 333.065C79.0323 329.955 81.5627 327.419 84.6774 327.419C87.7922 327.419 90.3226 329.955 90.3226 333.065C90.3226 336.174 87.7922 338.71 84.6774 338.71ZM225.806 249.961L212.857 254.28L211.903 256.769C211.619 257.492 211.338 258.211 211.026 258.908L209.932 261.353L216.035 273.559L205.822 283.771L193.617 277.669L191.175 278.763C190.48 279.074 189.774 279.356 189.058 279.628L186.544 280.577L182.219 293.548H167.775L163.451 280.577L160.937 279.628C160.22 279.356 159.514 279.074 158.82 278.763L156.378 277.669L144.172 283.771L133.96 273.559L140.062 261.353L138.968 258.908C138.651 258.203 138.375 257.492 138.091 256.769L137.138 254.28L124.194 249.961V235.517L137.143 231.198L138.097 228.709C138.381 227.987 138.662 227.267 138.974 226.567L140.068 224.125L133.965 211.92L144.178 201.707L156.383 207.81L158.825 206.715C159.52 206.404 160.226 206.123 160.942 205.85L163.456 204.902L167.781 191.935H182.225L186.549 204.907L189.063 205.855C189.78 206.128 190.486 206.409 191.18 206.721L193.622 207.815L205.828 201.713L216.04 211.925L209.938 224.131L211.032 226.575C211.349 227.281 211.625 227.992 211.909 228.714L212.862 231.204L225.806 235.523V249.961ZM265.323 338.71C262.208 338.71 259.677 336.174 259.677 333.065C259.677 329.955 262.208 327.419 265.323 327.419C268.437 327.419 270.968 329.955 270.968 333.065C270.968 336.174 268.437 338.71 265.323 338.71ZM321.774 293.548C321.774 299.775 316.711 304.839 310.484 304.839C304.257 304.839 299.194 299.775 299.194 293.548C299.194 287.322 304.257 282.258 310.484 282.258C316.711 282.258 321.774 287.322 321.774 293.548ZM282.258 146.774H338.71V169.355H282.258V146.774Z" fill="#32D29B"/>
</g>
<defs>
<clipPath id="clip0">
<rect width="350" height="350" fill="white"/>
</clipPath>
</defs>
</svg>
