<svg width="920" height="618" viewBox="0 0 920 618" fill="none" xmlns="http://www.w3.org/2000/svg">
<path d="M686.922 405.428C686.175 403.148 686.343 400.66 687.39 398.505C688.437 396.35 690.278 394.7 692.514 393.915C692.972 393.761 693.442 393.646 693.919 393.571L698.736 373.495L711.295 373.534L704.106 401.787C704.281 403.81 703.785 405.834 702.696 407.538C701.608 409.241 699.99 410.526 698.1 411.188C696.994 411.563 695.826 411.711 694.663 411.623C693.501 411.536 692.367 411.215 691.327 410.679C690.287 410.144 689.362 409.404 688.606 408.502C687.85 407.601 687.278 406.556 686.922 405.428Z" fill="#9F616A"/>
<path d="M708.125 392.437L688.891 391.064L698.206 333.884L692.278 270.923L711.721 262.712L724.687 332.631L724.652 332.758L708.125 392.437Z" fill="#2F2E41"/>
<path d="M559.402 385.735C559.36 383.338 560.256 381.021 561.894 379.295C563.532 377.568 565.778 376.573 568.139 376.528C568.621 376.526 569.103 376.564 569.579 376.643L580.114 359.039L592.062 363.024L576.845 387.669C576.384 389.834 575.15 391.748 573.381 393.043C571.612 394.338 569.434 394.922 567.267 394.682C565.099 394.441 563.096 393.394 561.644 391.742C560.191 390.09 559.393 387.95 559.402 385.735Z" fill="#9F616A"/>
<path d="M618.717 605.852H608.485L603.618 565.203L618.72 565.204L618.717 605.852Z" fill="#9F616A"/>
<path d="M621.327 616.068L588.335 616.067V615.637C588.322 612.137 589.675 608.774 592.097 606.285C593.279 605.056 594.692 604.08 596.251 603.415C597.811 602.75 599.485 602.408 601.177 602.411H601.177L621.327 602.412L621.327 616.068Z" fill="#2F2E41"/>
<path d="M690.097 605.852H679.866L674.998 565.203L690.099 565.204L690.097 605.852Z" fill="#9F616A"/>
<path d="M692.707 616.068L659.715 616.067V615.637C659.702 612.137 661.055 608.774 663.477 606.285C664.659 605.056 666.072 604.08 667.631 603.415C669.19 602.75 670.865 602.408 672.556 602.411H672.557L692.707 602.412L692.707 616.068Z" fill="#2F2E41"/>
<path d="M680.367 224.134C693.792 224.134 704.675 212.924 704.675 199.097C704.675 185.269 693.792 174.06 680.367 174.06C666.942 174.06 656.06 185.269 656.06 199.097C656.06 212.924 666.942 224.134 680.367 224.134Z" fill="#9F616A"/>
<path d="M672.157 197.724C668.503 199.155 664.463 199.201 660.777 197.855C657.091 196.509 654.006 193.859 652.086 190.392C650.343 186.795 649.904 182.69 650.845 178.797C651.786 174.905 654.047 171.473 657.231 169.106C663.701 164.646 673.363 166.122 679.635 171.294C683.864 169.315 688.609 168.773 693.166 169.747C697.723 170.721 701.85 173.16 704.936 176.703C710.991 183.917 711.652 195.368 707.24 203.778C705.31 208.168 704.454 212.967 704.746 217.766C705.038 222.564 706.469 227.22 708.916 231.335C707.018 231.255 702.839 230.893 697.611 230.428C696.098 230.294 695.443 225.716 693.784 225.569C692.321 225.439 689.866 229.741 688.333 229.607C676.978 228.619 664.265 227.615 658.504 227.811C662.547 217.552 667.104 207.51 672.157 197.724Z" fill="#2F2E41"/>
<path d="M699.008 375.479C699.008 375.479 706.908 383.868 702.085 427.188L698.752 519.172L692.856 600.62L673.885 599.321L657.222 411.857L633.893 480.456L621.332 593.864L603.13 592.565L600.022 479.787L608.001 392.629L699.008 375.479Z" fill="#2F2E41"/>
<path d="M620.82 397.876C611.114 397.876 607.205 396.674 606.919 396.582L606.469 396.436L606.548 395.957C606.613 395.563 613.134 356.402 622.081 335.843L628.373 252.467C628.539 250.005 629.521 247.673 631.158 245.849C632.795 244.025 634.991 242.818 637.389 242.423L637.474 242.974L637.389 242.423L653.393 239.835L663.183 230.956L686.635 232.292L688.704 242.51C691.508 243.318 710.018 249.161 711.85 263.152L711.873 263.328L711.794 263.484L677.884 330.676C680.749 333.589 703.395 357.55 704.932 388.182L704.969 388.919L704.271 388.755C704.206 388.741 696.959 387.323 658.85 393.958C641.225 397.027 628.976 397.876 620.82 397.876Z" fill="#2F2E41"/>
<path d="M583.227 385.329L569.406 374.366L600.255 310.792L628.948 248.483C629.342 247.614 629.99 246.89 630.804 246.411C631.618 245.931 632.559 245.718 633.496 245.803C634.434 245.887 635.323 246.263 636.041 246.881C636.76 247.498 637.273 248.327 637.51 249.252L644.613 275.79L622.403 335.306L583.227 385.329Z" fill="#2F2E41"/>
<path d="M879.932 615.615L880.753 614.072C869.741 608.023 856.037 600.494 848.879 588.14C841.823 575.961 841.665 559.423 848.466 544.979C854.254 532.686 864.886 521.673 879.213 513.13C882.039 511.445 885.005 509.848 887.874 508.303C894.809 504.57 901.979 500.71 907.892 495.233C916.035 487.689 922.197 475.03 917.604 463.754C916.094 460.155 913.621 457.058 910.465 454.815C907.309 452.572 903.597 451.273 899.751 451.065L899.654 452.817C903.177 453.007 906.578 454.196 909.47 456.25C912.361 458.304 914.628 461.14 916.014 464.436C920.281 474.915 914.426 486.806 906.728 493.937C900.977 499.264 893.905 503.071 887.066 506.754C884.181 508.307 881.197 509.913 878.339 511.618C863.714 520.339 852.845 531.613 846.908 544.222C839.863 559.185 840.048 576.354 847.391 589.03C854.793 601.805 868.731 609.462 879.932 615.615Z" fill="#F1F1F1"/>
<path d="M888.807 460.311C897.152 460.311 903.916 456.973 903.916 452.856C903.916 448.738 897.152 445.401 888.807 445.401C880.462 445.401 873.697 448.738 873.697 452.856C873.697 456.973 880.462 460.311 888.807 460.311Z" fill="#F1F1F1"/>
<path d="M876.719 509.426C885.064 509.426 891.829 506.088 891.829 501.971C891.829 497.854 885.064 494.516 876.719 494.516C868.374 494.516 861.609 497.854 861.609 501.971C861.609 506.088 868.374 509.426 876.719 509.426Z" fill="#F1F1F1"/>
<path d="M904.348 517.319C912.693 517.319 919.458 513.982 919.458 509.864C919.458 505.747 912.693 502.409 904.348 502.409C896.003 502.409 889.238 505.747 889.238 509.864C889.238 513.982 896.003 517.319 904.348 517.319Z" fill="#F1F1F1"/>
<path d="M861.178 558.541C869.523 558.541 876.287 555.204 876.287 551.086C876.287 546.969 869.523 543.631 861.178 543.631C852.833 543.631 846.068 546.969 846.068 551.086C846.068 555.204 852.833 558.541 861.178 558.541Z" fill="#F1F1F1"/>
<path d="M830.958 558.541C839.303 558.541 846.068 555.204 846.068 551.086C846.068 546.969 839.303 543.631 830.958 543.631C822.614 543.631 815.849 546.969 815.849 551.086C815.849 555.204 822.614 558.541 830.958 558.541Z" fill="#F1F1F1"/>
<path d="M918.042 618H425.365C425.015 618 424.68 617.859 424.433 617.608C424.185 617.356 424.046 617.015 424.046 616.66C424.046 616.305 424.185 615.964 424.433 615.713C424.68 615.461 425.015 615.32 425.365 615.32H918.681C919.031 615.32 919.366 615.461 919.614 615.713C919.861 615.964 920 616.305 920 616.66C920 617.4 918.771 618 918.042 618Z" fill="#CBCBCB"/>
<path d="M301.449 149.76H82.4902C80.7417 149.758 79.0654 149.052 77.829 147.796C76.5926 146.54 75.8971 144.837 75.8951 143.061V68.0275C75.8971 66.2513 76.5926 64.5485 77.829 63.2926C79.0654 62.0366 80.7417 61.3301 82.4902 61.3281H301.449C303.197 61.3301 304.873 62.0366 306.11 63.2925C307.346 64.5485 308.042 66.2513 308.044 68.0275V143.061C308.042 144.837 307.346 146.54 306.11 147.796C304.873 149.052 303.197 149.758 301.449 149.76Z" fill="#3F3D56"/>
<path d="M168.227 81.4263H110.19V88.1257H168.227V81.4263Z" fill="white"/>
<path d="M244.73 89.4656C246.916 89.4656 248.688 87.666 248.688 85.446C248.688 83.226 246.916 81.4263 244.73 81.4263C242.545 81.4263 240.773 83.226 240.773 85.446C240.773 87.666 242.545 89.4656 244.73 89.4656Z" fill="#32D29B"/>
<path d="M257.921 89.4656C260.106 89.4656 261.878 87.666 261.878 85.446C261.878 83.226 260.106 81.4263 257.921 81.4263C255.735 81.4263 253.964 83.226 253.964 85.446C253.964 87.666 255.735 89.4656 257.921 89.4656Z" fill="#32D29B"/>
<path d="M271.111 89.4656C273.296 89.4656 275.068 87.666 275.068 85.446C275.068 83.226 273.296 81.4263 271.111 81.4263C268.926 81.4263 267.154 83.226 267.154 85.446C267.154 87.666 268.926 89.4656 271.111 89.4656Z" fill="#32D29B"/>
<path d="M301.449 244.892H82.4902C80.7417 244.89 79.0654 244.183 77.829 242.928C76.5926 241.672 75.8971 239.969 75.8951 238.193V163.159C75.8971 161.383 76.5926 159.68 77.829 158.424C79.0654 157.168 80.7417 156.462 82.4902 156.46H301.449C303.197 156.462 304.873 157.168 306.11 158.424C307.346 159.68 308.042 161.383 308.044 163.159V238.193C308.042 239.969 307.346 241.672 306.11 242.928C304.873 244.184 303.197 244.89 301.449 244.892Z" fill="#3F3D56"/>
<path d="M168.227 176.558H110.19V183.257H168.227V176.558Z" fill="white"/>
<path d="M244.73 184.597C246.916 184.597 248.688 182.798 248.688 180.578C248.688 178.358 246.916 176.558 244.73 176.558C242.545 176.558 240.773 178.358 240.773 180.578C240.773 182.798 242.545 184.597 244.73 184.597Z" fill="#32D29B"/>
<path d="M257.921 184.597C260.106 184.597 261.878 182.798 261.878 180.578C261.878 178.358 260.106 176.558 257.921 176.558C255.735 176.558 253.964 178.358 253.964 180.578C253.964 182.798 255.735 184.597 257.921 184.597Z" fill="#32D29B"/>
<path d="M271.111 184.597C273.296 184.597 275.068 182.798 275.068 180.578C275.068 178.358 273.296 176.558 271.111 176.558C268.926 176.558 267.154 178.358 267.154 180.578C267.154 182.798 268.926 184.597 271.111 184.597Z" fill="#32D29B"/>
<path d="M301.449 340.024H82.4902C80.7417 340.022 79.0654 339.315 77.829 338.059C76.5926 336.803 75.8971 335.1 75.8951 333.324V258.291C75.8971 256.515 76.5926 254.812 77.829 253.556C79.0654 252.3 80.7417 251.593 82.4902 251.591H301.449C303.197 251.593 304.873 252.3 306.11 253.556C307.346 254.812 308.042 256.515 308.044 258.291V333.324C308.042 335.1 307.346 336.803 306.11 338.059C304.873 339.315 303.197 340.022 301.449 340.024Z" fill="#3F3D56"/>
<path d="M168.227 271.69H110.19V278.389H168.227V271.69Z" fill="white"/>
<path d="M244.73 279.729C246.916 279.729 248.688 277.929 248.688 275.709C248.688 273.489 246.916 271.69 244.73 271.69C242.545 271.69 240.773 273.489 240.773 275.709C240.773 277.929 242.545 279.729 244.73 279.729Z" fill="#32D29B"/>
<path d="M257.921 279.729C260.106 279.729 261.878 277.929 261.878 275.709C261.878 273.489 260.106 271.69 257.921 271.69C255.735 271.69 253.964 273.489 253.964 275.709C253.964 277.929 255.735 279.729 257.921 279.729Z" fill="#32D29B"/>
<path d="M271.111 279.729C273.296 279.729 275.068 277.929 275.068 275.709C275.068 273.489 273.296 271.69 271.111 271.69C268.926 271.69 267.154 273.489 267.154 275.709C267.154 277.929 268.926 279.729 271.111 279.729Z" fill="#32D29B"/>
<path d="M221.596 398.259H0V309.513H2.63805V395.579H221.596V398.259Z" fill="#CCCCCC"/>
<path d="M138.498 0H360.094V88.7458H357.456V2.67977H138.498V0Z" fill="#CCCCCC"/>
</svg>
