<svg width="1009" height="630" viewBox="0 0 1009 630" fill="none" xmlns="http://www.w3.org/2000/svg">
<g clip-path="url(#clip0)">
<path d="M906.705 318.136L898.215 325.901L909.494 353.168L925.229 322.939L951.002 185.695L911.364 184.672L906.705 318.136Z" fill="#9F616A"/>
<path d="M842.114 605.38H820.643L803.943 429.639H845.693L842.114 605.38Z" fill="#9F616A"/>
<path d="M923.228 605.38H901.757L885.057 429.639H926.807L923.228 605.38Z" fill="#9F616A"/>
<path d="M906.599 628.305L875.252 628.15C872.457 626.855 870.278 624.647 869.136 621.952C867.993 619.257 867.968 616.265 869.066 613.554V613.554C869.845 611.629 871.157 609.927 872.871 608.62C874.585 607.313 876.639 606.448 878.829 606.11L884.75 605.195L889.91 599.11C891.378 597.34 893.501 596.136 895.869 595.728C898.238 595.32 900.686 595.737 902.743 596.899C907.692 599.81 914.557 600.78 923.021 600.129L929.609 615.035C930.915 623.099 924.956 628.419 916.263 629.691C912.965 630.173 909.586 629.689 906.599 628.305V628.305Z" fill="#2F2E41"/>
<path d="M825.486 628.305L794.138 628.15C791.343 626.855 789.164 624.648 788.022 621.952C786.879 619.257 786.854 616.265 787.952 613.554V613.554C788.731 611.629 790.043 609.927 791.757 608.62C793.471 607.314 795.525 606.448 797.715 606.11L803.636 605.195L809.373 598.429C810.765 596.802 812.77 595.721 814.985 595.403C817.2 595.085 819.463 595.553 821.322 596.715C826.293 599.769 833.267 600.794 841.907 600.129L848.495 615.035C849.8 623.099 843.842 628.419 835.149 629.691C831.851 630.173 828.472 629.689 825.486 628.305Z" fill="#2F2E41"/>
<path d="M848.078 91.422C865.865 91.422 880.285 78.061 880.285 61.5794C880.285 45.0977 865.865 31.7367 848.078 31.7367C830.29 31.7367 815.871 45.0977 815.871 61.5794C815.871 78.061 830.29 91.422 848.078 91.422Z" fill="#9F616A"/>
<path d="M894.599 119.054L842.114 122.37C842.3 106.632 841.558 92.3772 837.342 83.685L874.321 72.6322C874.676 86.4899 882.521 102.238 894.599 119.054Z" fill="#9F616A"/>
<path d="M926.806 334.585L792.014 324.637C809.998 269.085 804.37 196.342 786.05 141.806C786.05 135.437 788.135 129.218 792.03 123.971C795.925 118.724 801.447 114.695 807.866 112.418L842.114 100.264L885.056 104.685L921.267 121.461C926.853 124.049 931.533 128.05 934.766 133.001C938 137.952 939.654 143.65 939.537 149.436C925.926 199.872 924.286 264.724 926.806 334.585Z" fill="#32D29B"/>
<path d="M825.414 198.635L764.578 188.687L769.814 151.085C771.089 141.932 775.265 133.335 781.815 126.381C788.364 119.428 796.992 114.432 806.608 112.024L818.257 109.107L825.414 198.635Z" fill="#32D29B"/>
<path d="M789.629 323.532L796.786 332.374L786.05 360.006L770.543 325.743L766.964 186.477L806.329 190.898L789.629 323.532Z" fill="#9F616A"/>
<path d="M892.213 200.845L953.049 190.898L947.813 153.295C946.538 144.142 942.362 135.545 935.812 128.592C929.263 121.639 920.635 116.642 911.02 114.234L899.371 111.317L892.213 200.845Z" fill="#32D29B"/>
<path d="M930.385 435.165L880.477 437.376L865.971 372.164L848.355 432.955L795.592 434.06L785.045 355.512C784.231 349.449 784.746 343.295 786.558 337.421C788.37 331.546 791.443 326.07 795.592 321.321V321.321L926.806 326.848L930.385 435.165Z" fill="#2F2E41"/>
<path d="M851.06 94.1853L875.144 89.9593L889.472 67.2794C892.948 61.7761 894.452 55.3931 893.768 49.0479C893.083 42.7027 890.245 36.7219 885.662 31.9651V31.9651C882.09 28.2584 877.585 25.4271 872.547 23.723C867.509 22.019 862.095 21.495 856.786 22.1978L825.573 26.3294C822.881 26.6857 820.292 27.5319 817.955 28.8192C815.618 30.1065 813.579 31.8095 811.956 33.8302C810.332 35.8509 809.156 38.1492 808.495 40.5928C807.834 43.0365 807.701 45.5772 808.105 48.0685L829.129 51.3829L851.06 94.1853Z" fill="#2F2E41"/>
<path d="M836.746 76.5007C840.04 76.5007 842.71 73.5316 842.71 69.869C842.71 66.2064 840.04 63.2373 836.746 63.2373C833.452 63.2373 830.781 66.2064 830.781 69.869C830.781 73.5316 833.452 76.5007 836.746 76.5007Z" fill="#9F616A"/>
<path d="M150.855 13.4995C147.376 13.5032 144.041 14.7853 141.581 17.0646C139.121 19.3439 137.738 22.4342 137.734 25.6576V247.82C137.738 251.043 139.121 254.133 141.581 256.413C144.041 258.692 147.376 259.974 150.855 259.978H156.819C160.298 259.974 163.633 258.692 166.093 256.413C168.553 254.133 169.937 251.043 169.941 247.82V25.6576C169.937 22.4342 168.553 19.3439 166.093 17.0646C163.633 14.7853 160.298 13.5032 156.819 13.4995H150.855Z" fill="#E6E6E6"/>
<path d="M150.855 18.4733C148.799 18.4755 146.829 19.2332 145.375 20.58C143.921 21.9269 143.104 23.7529 143.101 25.6577V247.82C143.104 249.724 143.921 251.551 145.375 252.897C146.829 254.244 148.799 255.002 150.855 255.004H156.819C158.875 255.002 160.846 254.244 162.299 252.897C163.753 251.551 164.57 249.724 164.573 247.82V25.6577C164.57 23.7529 163.753 21.9269 162.299 20.58C160.846 19.2332 158.875 18.4755 156.819 18.4733H150.855Z" fill="white"/>
<path d="M248.669 13.4995C245.19 13.5032 241.855 14.7853 239.395 17.0646C236.935 19.3439 235.552 22.4342 235.548 25.6576V247.82C235.552 251.043 236.935 254.133 239.395 256.413C241.855 258.692 245.19 259.974 248.669 259.978H254.633C258.112 259.974 261.447 258.692 263.907 256.413C266.367 254.133 267.751 251.043 267.755 247.82V25.6576C267.751 22.4342 266.367 19.3439 263.907 17.0646C261.447 14.7853 258.112 13.5032 254.633 13.4995H248.669Z" fill="#E6E6E6"/>
<path d="M248.669 18.4733C246.613 18.4755 244.643 19.2332 243.189 20.58C241.735 21.9269 240.918 23.7529 240.915 25.6577V247.82C240.918 249.724 241.735 251.551 243.189 252.897C244.643 254.244 246.613 255.002 248.669 255.004H254.633C256.689 255.002 258.66 254.244 260.113 252.897C261.567 251.551 262.384 249.724 262.387 247.82V25.6577C262.384 23.7529 261.567 21.9269 260.113 20.58C258.66 19.2332 256.689 18.4755 254.633 18.4733H248.669Z" fill="white"/>
<path d="M346.483 13.4995C343.004 13.5032 339.669 14.7853 337.209 17.0646C334.749 19.3439 333.366 22.4342 333.362 25.6576V247.82C333.366 251.043 334.749 254.133 337.209 256.413C339.669 258.692 343.004 259.974 346.483 259.978H352.447C355.926 259.974 359.261 258.692 361.721 256.413C364.181 254.133 365.565 251.043 365.569 247.82V25.6576C365.565 22.4342 364.181 19.3439 361.721 17.0646C359.261 14.7853 355.926 13.5032 352.447 13.4995H346.483Z" fill="#E6E6E6"/>
<path d="M346.483 18.4733C344.427 18.4755 342.457 19.2332 341.003 20.58C339.549 21.9269 338.732 23.7529 338.729 25.6577V247.82C338.732 249.724 339.549 251.551 341.003 252.897C342.457 254.244 344.427 255.002 346.483 255.004H352.447C354.503 255.002 356.474 254.244 357.927 252.897C359.381 251.551 360.198 249.724 360.201 247.82V25.6577C360.198 23.7529 359.381 21.9269 357.927 20.58C356.474 19.2332 354.503 18.4755 352.447 18.4733H346.483Z" fill="white"/>
<path d="M444.297 13.4995C440.818 13.5032 437.483 14.7853 435.023 17.0646C432.563 19.3439 431.179 22.4342 431.176 25.6576V247.82C431.179 251.043 432.563 254.133 435.023 256.413C437.483 258.692 440.818 259.974 444.297 259.978H450.261C453.74 259.974 457.075 258.692 459.535 256.413C461.995 254.133 463.379 251.043 463.383 247.82V25.6576C463.379 22.4342 461.995 19.3439 459.535 17.0646C457.075 14.7853 453.74 13.5032 450.261 13.4995H444.297Z" fill="#E6E6E6"/>
<path d="M444.297 18.4733C442.241 18.4755 440.27 19.2332 438.817 20.58C437.363 21.9269 436.546 23.7529 436.543 25.6577V247.82C436.546 249.724 437.363 251.551 438.817 252.897C440.27 254.244 442.241 255.002 444.297 255.004H450.261C452.317 255.002 454.288 254.244 455.741 252.897C457.195 251.551 458.012 249.724 458.015 247.82V25.6577C458.012 23.7529 457.195 21.9269 455.741 20.58C454.288 19.2332 452.317 18.4755 450.261 18.4733H444.297Z" fill="white"/>
<path d="M542.111 13.4995C538.632 13.5032 535.297 14.7853 532.837 17.0646C530.377 19.3439 528.993 22.4342 528.99 25.6576V247.82C528.993 251.043 530.377 254.133 532.837 256.413C535.297 258.692 538.632 259.974 542.111 259.978H548.075C551.554 259.974 554.889 258.692 557.349 256.413C559.809 254.133 561.193 251.043 561.197 247.82V25.6576C561.193 22.4342 559.809 19.3439 557.349 17.0646C554.889 14.7853 551.554 13.5032 548.075 13.4995H542.111Z" fill="#E6E6E6"/>
<path d="M542.111 18.4733C540.055 18.4755 538.085 19.2332 536.631 20.58C535.177 21.9269 534.36 23.7529 534.357 25.6577V247.82C534.36 249.724 535.177 251.551 536.631 252.897C538.085 254.244 540.055 255.002 542.111 255.004H548.075C550.131 255.002 552.102 254.244 553.555 252.897C555.009 251.551 555.826 249.724 555.829 247.82V25.6577C555.826 23.7529 555.009 21.9269 553.555 20.58C552.102 19.2332 550.131 18.4755 548.075 18.4733H542.111Z" fill="white"/>
<path d="M173.23 85.3765H135.637C132.398 85.3732 129.292 84.1794 127.002 82.0571C124.711 79.9347 123.423 77.0572 123.419 74.0557V72.3141C123.423 69.3126 124.711 66.4351 127.002 64.3127C129.292 62.1904 132.398 60.9966 135.637 60.9933H173.23C176.469 60.9966 179.575 62.1904 181.865 64.3127C184.156 66.4351 185.444 69.3126 185.448 72.3141V74.0557C185.444 77.0572 184.156 79.9347 181.865 82.0571C179.575 84.1794 176.469 85.3732 173.23 85.3765V85.3765Z" fill="#32D29B"/>
<path d="M273.43 121.851H235.837C232.597 121.848 229.492 120.654 227.201 118.531C224.911 116.409 223.623 113.532 223.619 110.53V108.788C223.623 105.787 224.911 102.909 227.201 100.787C229.492 98.6648 232.597 97.471 235.837 97.4677H273.43C276.669 97.471 279.774 98.6648 282.065 100.787C284.355 102.909 285.644 105.787 285.647 108.788V110.53C285.644 113.532 284.355 116.409 282.065 118.531C279.774 120.654 276.669 121.848 273.43 121.851V121.851Z" fill="#32D29B"/>
<path d="M368.858 193.694H331.265C328.026 193.691 324.92 192.497 322.63 190.375C320.339 188.253 319.051 185.375 319.047 182.374V180.632C319.051 177.63 320.339 174.753 322.63 172.631C324.92 170.508 328.026 169.314 331.265 169.311H368.858C372.097 169.314 375.203 170.508 377.493 172.631C379.784 174.753 381.072 177.63 381.076 180.632V182.374C381.072 185.375 379.784 188.253 377.493 190.375C375.203 192.497 372.097 193.691 368.858 193.694V193.694Z" fill="#32D29B"/>
<path d="M466.672 63.2708H429.079C425.84 63.2675 422.734 62.0737 420.444 59.9513C418.153 57.829 416.865 54.9515 416.861 51.95V50.2084C416.865 47.2069 418.153 44.3294 420.444 42.207C422.734 40.0847 425.84 38.8909 429.079 38.8876H466.672C469.911 38.8909 473.017 40.0847 475.307 42.207C477.598 44.3294 478.886 47.2069 478.89 50.2084V51.95C478.886 54.9515 477.598 57.829 475.307 59.9514C473.017 62.0737 469.911 63.2675 466.672 63.2708Z" fill="#32D29B"/>
<path d="M564.486 149.483H526.893C523.654 149.48 520.548 148.286 518.258 146.164C515.967 144.041 514.679 141.164 514.675 138.162V136.421C514.679 133.419 515.967 130.542 518.258 128.419C520.548 126.297 523.654 125.103 526.893 125.1H564.486C567.725 125.103 570.831 126.297 573.121 128.419C575.412 130.542 576.7 133.419 576.704 136.421V138.162C576.7 141.164 575.412 144.041 573.121 146.164C570.831 148.286 567.725 149.48 564.486 149.483Z" fill="#32D29B"/>
<path d="M1008.53 630H689.558V627.585H1009L1008.53 630Z" fill="#3F3D56"/>
<path d="M154.433 318.558C162.998 318.558 169.941 312.125 169.941 304.189C169.941 296.254 162.998 289.821 154.433 289.821C145.869 289.821 138.926 296.254 138.926 304.189C138.926 312.125 145.869 318.558 154.433 318.558Z" fill="#E6E6E6"/>
<path d="M252.248 318.558C260.812 318.558 267.755 312.125 267.755 304.189C267.755 296.254 260.812 289.821 252.248 289.821C243.683 289.821 236.74 296.254 236.74 304.189C236.74 312.125 243.683 318.558 252.248 318.558Z" fill="#E6E6E6"/>
<path d="M350.062 318.558C358.626 318.558 365.569 312.125 365.569 304.189C365.569 296.254 358.626 289.821 350.062 289.821C341.497 289.821 334.554 296.254 334.554 304.189C334.554 312.125 341.497 318.558 350.062 318.558Z" fill="#E6E6E6"/>
<path d="M447.876 318.558C456.44 318.558 463.383 312.125 463.383 304.189C463.383 296.254 456.44 289.821 447.876 289.821C439.311 289.821 432.368 296.254 432.368 304.189C432.368 312.125 439.311 318.558 447.876 318.558Z" fill="#E6E6E6"/>
<path d="M545.69 318.558C554.254 318.558 561.197 312.125 561.197 304.189C561.197 296.254 554.254 289.821 545.69 289.821C537.125 289.821 530.182 296.254 530.182 304.189C530.182 312.125 537.125 318.558 545.69 318.558Z" fill="#E6E6E6"/>
<path d="M34.3498 0C27.556 2.18606e-06 20.9149 1.86669 15.2661 5.36401C9.61728 8.86133 5.21459 13.8322 2.61473 19.648C0.0148834 25.4639 -0.665358 31.8634 0.660039 38.0375C1.98544 44.2115 5.25693 49.8827 10.0608 54.334C14.8647 58.7852 20.9853 61.8166 27.6485 63.0446C34.3117 64.2727 41.2183 63.6424 47.4949 61.2334C53.7715 58.8244 59.1362 54.7449 62.9106 49.5108C66.685 44.2767 68.6996 38.1231 68.6996 31.8281C68.6996 27.6484 67.8111 23.5096 66.0849 19.648C64.3586 15.7864 61.8284 12.2777 58.6388 9.32222C55.4491 6.36671 51.6624 4.02228 47.4949 2.42277C43.3274 0.823258 38.8607 -4.35442e-06 34.3498 0V0ZM34.3498 58.9541C28.5597 58.9541 22.8997 57.3632 18.0854 54.3825C13.2711 51.4019 9.51889 47.1654 7.30313 42.2088C5.08737 37.2521 4.50763 31.798 5.63722 26.5361C6.76681 21.2742 9.55498 16.4408 13.6492 12.6471C17.7434 8.85352 22.9597 6.27001 28.6385 5.22335C34.3173 4.17669 40.2036 4.71388 45.5529 6.76698C50.9022 8.82008 55.4744 12.2969 58.6912 16.7577C61.908 21.2186 63.6249 26.4631 63.6249 31.8281C63.6249 35.3903 62.8677 38.9177 61.3965 42.2088C59.9253 45.4998 57.7689 48.4902 55.0504 51.0091C52.332 53.5279 49.1047 55.526 45.5529 56.8892C42.0011 58.2524 38.1942 58.9541 34.3498 58.9541V58.9541Z" fill="#E6E6E6"/>
<path d="M32.4519 42.7131C32.2139 42.7131 31.9783 42.6696 31.7584 42.5852C31.5385 42.5008 31.3388 42.3771 31.1705 42.2211L21.3837 33.1526C21.2154 32.9967 21.0819 32.8116 20.9909 32.6079C20.8998 32.4042 20.8529 32.1858 20.8529 31.9653C20.8529 31.7448 20.8998 31.5264 20.9909 31.3227C21.0819 31.119 21.2154 30.9339 21.3837 30.778C21.552 30.622 21.7517 30.4983 21.9716 30.414C22.1915 30.3296 22.4271 30.2861 22.6651 30.2861C22.9031 30.2861 23.1387 30.3296 23.3586 30.414C23.5785 30.4983 23.7782 30.622 23.9465 30.778L32.2396 38.4622L46.9393 19.8885C47.2236 19.5294 47.6502 19.2895 48.1253 19.2218C48.6004 19.1541 49.0851 19.264 49.4728 19.5274C49.8604 19.7908 50.1192 20.1861 50.1923 20.6263C50.2654 21.0666 50.1468 21.5157 49.8625 21.8749L33.9135 42.0268C33.7589 42.2221 33.5606 42.3841 33.3322 42.5017C33.1038 42.6193 32.8506 42.6899 32.59 42.7084C32.544 42.7117 32.4976 42.7131 32.4519 42.7131Z" fill="#32D29B"/>
</g>
<defs>
<clipPath id="clip0">
<rect width="1009" height="630" fill="white"/>
</clipPath>
</defs>
</svg>
